<?xml version="1.0" encoding="utf-8"?>
<!-- Generator: Adobe Illustrator 24.3.0, SVG Export Plug-In . SVG Version: 6.00 Build 0)  -->
<svg version="1.1" id="Layer_1" xmlns="http://www.w3.org/2000/svg" xmlns:xlink="http://www.w3.org/1999/xlink" x="0px" y="0px"
	 viewBox="0 0 2000 2000" style="enable-background:new 0 0 2000 2000;" xml:space="preserve">
<g>
	<g>
		<g>
			<g>
				<path d="M712.06,1137.28c0,6.66-3.21,13.07-11.22,16.65c10.11,3.08,13.81,13.81,13.81,19.24c0,19.24-14.43,25.41-32.31,25.41
					c-13.69,0-27.26,0-40.95,0v-86.34c13.57,0,27.26,0,40.95,0C699.36,1112.24,712.06,1119.89,712.06,1137.28z M657.43,1146.9h24.91
					c10.24,0,13.57-4.32,13.57-9.25c0-3.95-3.21-10.61-13.57-10.61h-24.91V1146.9z M657.43,1183.41h24.91
					c6.66,0,16.16-2.22,16.16-10.36c0-7.77-9.5-11.84-16.16-11.84h-24.91V1183.41z"/>
				<path d="M805.06,1112.37v49.46c0,25.53-15.66,38.6-37.37,38.6c-20.72,0-38.36-12.58-38.36-38.6v-49.46h16.16v49.46
					c0,15.54,8.88,23.8,22.32,23.8c13.44,0,21.09-9,21.09-23.8v-49.46H805.06z"/>
				<path d="M856.87,1147.89l22.94-35.64h19.61v0.74l-34.41,49.95v35.64h-16.28v-35.64l-33.18-49.95v-0.74h19.36L856.87,1147.89z"/>
				<path d="M950.86,1127.04h-27.38v-14.8c24.91,0,46,0,71.04,0v14.8h-27.38v71.54h-16.28V1127.04z"/>
				<path d="M1065.56,1198.7v-34.9h-42.43v34.9h-16.28v-86.34h16.28v36.38h42.43v-36.38h16.16v86.34H1065.56z"/>
				<path d="M1166.83,1198.58h-64.63c0-28.74,0-57.6,0-86.34h64.63v15.79h-48.47v19.86h46.74v15.17h-46.74v19.49h48.47V1198.58z"/>
				<path d="M1230.35,1112.24v71.29h44.4v15.05h-60.68v-86.34H1230.35z"/>
				<path d="M1369.11,1155.91c-0.25,22.32-13.94,44.65-44.28,44.65c-30.34,0-44.4-21.83-44.4-44.52c0-27.26,19.73-45.51,44.77-45.51
					C1354.68,1110.76,1369.36,1133.46,1369.11,1155.91z M1324.83,1185.63c20.35,0,28-15.29,28.24-29.48
					c0.25-14.43-8.02-30.46-27.87-30.83c-18.38,0-29.23,13.81-28.74,30.96C1296.83,1170.46,1304.48,1185.63,1324.83,1185.63z"/>
				<path d="M1468.03,1155.91c-0.25,22.32-13.94,44.65-44.28,44.65c-30.34,0-44.4-21.83-44.4-44.52c0-27.26,19.73-45.51,44.77-45.51
					C1453.6,1110.76,1468.28,1133.46,1468.03,1155.91z M1423.75,1185.63c20.35,0,28-15.29,28.24-29.48
					c0.25-14.43-8.02-30.46-27.87-30.83c-18.38,0-29.23,13.81-28.74,30.96C1395.75,1170.46,1403.4,1185.63,1423.75,1185.63z"/>
				<path d="M1552.64,1112.74l-38.36,41.32l41.56,43.54v0.99h-20.1l-36.14-38.23v38.23h-16.28v-86.34h16.28v36.51l32.81-36.51h20.23
					V1112.74z"/>
			</g>
			<g>
				<g>
					<path d="M722.38,992.79c-2.19-1.79-4.81-5.2-5.12-6.61s-0.17-6.41-4.06-9.03c-3.89-2.62-2.51-5.12-6.16-11.05
						c-3.65-5.93-22.6-16.21-38.85-21.59c-16.25-5.39-16.17-2.21-30.01-13.35c-13.84-11.13-27.78-30.82-27.96-33.82
						c-0.18-2.99,4.23-7.01,10.47-7.38c6.24-0.37,5.75,3.19,12.6,2.78c6.85-0.41,3.63-7.42,3.63-7.42c2.59-0.12,2.55-2.09,2.55-2.09
						c-2.46,0.15-2.34-1.3-2.34-1.3c8.05-4.39,9.05-9.11,9.05-9.11c-5.91-2.44-5.08-8.55-5.08-8.55c3.96,0.14,4.68-3.57,4.68-3.57
						c-1.97,0.9-3.93,0.44-3.93,0.44c4.48-4.88,2.11-18.32,2.11-18.32c5.61-0.42,7.8-9.18,7.96-9.83c-1.85,5.02-6.31,5.78-6.31,5.78
						c4.43-6.02,1.91-12.93,1.75-13.35c0.93,4.79-2.85,7.49-2.85,7.49c-8.62-10.52-22-15.18-32.99-14.51
						c-10.99,0.66-14.07,4.34-14.07,4.34c-0.31-0.84-0.69-1.58-1.12-2.22c-3.58-5.38-10.51-4-10.51-4
						c-5.86,0.36-9.74,4.4-11.34,10.05c3.13-0.99,5.76-0.86,7.26,0.57c3.38,3.23,3.07,10.47,1.73,29.98
						c-0.07,1.45-0.19,2.88-0.36,4.29c1.13,4.45,3.05,8.22,4.56,10.74c1.27,2.1,2.25,3.32,2.25,3.32c-0.98,0.22-1.97,0.29-2.9,0.26
						c-3.3-0.11-5.99-1.45-5.99-1.45c1.26,3,3.07,5.06,4.92,6.48c3.65,2.79,7.43,3.07,7.43,3.07c0.81,2.59-6.41,4.18-6.41,4.18
						c6.82,2.47,10.68-3.12,10.68-3.12c-0.09,5.36-3.94,7.07-14.6,18.75c-1.94,2.13-4.26,5.14-6.75,8.64
						c-11.19,15.73-25.92,41.41-25.92,41.41s-7.82,10.34-15.84,21.26c-7.27,9.93-14.7,20.34-16.57,23.95
						c-2.26,4.37-7.74,4.26-11.98,3.39c-5.32-1.11-10.77-1.41-16.19-1.09l-13.83,0.84c-0.47,0.03-0.83,0.43-0.8,0.9
						c0.03,0.47,0.43,0.82,0.9,0.8l0.41-0.02c8.59-0.52,3.22,3.24,0.01,3.43c-3.2,0.19-2.83,1.82,1.09,1.58
						c3.91-0.23,3.68,1.34,1.5,3.45c-2.18,2.11,2.61,1.08,7.3-0.44c2.48-0.8,4.66-0.67,6.15-0.35c0.73,0.15,0.84,1.12,0.18,1.44
						c-0.31,0.15-0.6,0.32-0.88,0.48c-0.8,0.48-1.13,1.27-1.09,2.02c0.07,1.12,0.96,2.18,2.34,2.09c0.31-0.02,0.61-0.11,0.87-0.24
						c6.61-3.37,8.35-4.11,18.56-4.72c12.47-0.75,36.82-34,46.7-42.18c9.88-8.17,21.28-29.52,21.28-29.52
						c3.92,15.82-17.88,32.7-26.09,41.26c-8.21,8.57-4.9,11.58-10.69,26.18c-5.79,14.59-18.12,24.56-18.12,24.56
						c9.47,6.84,30.33,0.48,30.33,0.48l1.94,32.17c-7.9,11.01-6.82,23.47-6.89,30.55c-0.06,7.09-11.43,20.73-15.35,24.09
						c-3.92,3.37-7.69,0.74-11.91,0.99c-5.74,0.34-7.01,10.36-5.9,26.88c1.11,16.51-6.25,27.49-0.89,27.17
						c5.36-0.33,7.57-12.86,16.09-26.33c8.52-13.47,21.58-26.33,21.58-26.33c7.59,9.31,7.94,44.43,7.94,44.43s-5.1,2.73-4.6,11.14
						c0.51,8.43,9.46,25.78,15.92,32.86c6.46,7.08,8.44,3.44,8.05-3.12c-0.39-6.56-6.59-30.07-8.46-53.02
						c-1.88-22.94-0.24-50.38-0.24-50.38s16.77-19.62,31.09-28.06c14.31-8.43,15.64-13.79,13.81-19.6
						c-1.84-5.82-4.26-21.4-4.26-21.4c5.74,3.68,10.2,2.43,10.2,2.43c-10.95-14.99-17.73-39.72-18.74-56.38
						c-1-16.65,12.42-39.42,12.42-39.42s9.43,7.12,22.25,13.04c12.81,5.93,32,7.3,43.42,9.13c11.41,1.84,12.68,9.17,14.71,14.59
						c2.03,5.43-0.11,18.18,6.28,17.8c6.4-0.39,5.15-3.71,8.93-5.87c3.77-2.14,3.91,2.9,7.89,5.29
						C725.24,998.27,724.58,994.58,722.38,992.79z M592.3,1057.71c-1.39,4.78-9.43,6.88-9.68,6.95c4.3-6.03,3.19-18.03,3.19-18.03
						C590.17,1048.95,592.3,1057.71,592.3,1057.71z M703.01,990.11c0,0-0.09-1.45-0.32-5.33c-0.26-4.3,2.8-5,2.8-5
						c1.67-0.1,3.18,0.28,2.82,4.77C707.94,989.05,703.01,990.11,703.01,990.11z"/>
					<path d="M597.6,790.37c-4.34-4.14-11.77,0.85-13.43,3.62c-1.66,2.77-3.52,4.58-6.24,5.28c-2.71,0.71-8.62,7.71-8.87,10.91
						c-0.25,3.2-1.83,2.96-3.9,3.58c-2.07,0.62-11.02,10.22-9.71,21.02l-7.76,8.13c0,0-3.81-3.27-8.37-1.63
						c0,0-5.24-8.93-8.55-19.49c-3.31-10.56-9.09-28.16-16.44-35.16c-4.12-3.93-6.81,1.64-9.43,6.63c-2.62,5-6.31,9.06-6.48,11.79
						c-0.18,2.74-0.9,14.59-2.7,19.9c-1.79,5.31-1.37,4.97-0.77,9.94c0.6,4.97,1.37,9.45,0.35,13.17c-1.01,3.71,2.21,8.19-3.15,8.51
						c-5.36,0.31-10.13,3.25-11.02,8.11c-0.9,4.86,0.31,5.36-1.46,7.22c-1.78,1.86-2.6,3.35-0.48,5.38
						c2.13,2.04,4.08,2.28,3.21,4.89c-0.87,2.61-1.56,5.32,2.26,8.96c3.82,3.65,7.21,7.23,9.52,9.09c2.31,1.85,4.71,9.48-2.31,5.44
						c-7.03-4.04-19.16-12.6-23.4-8.15c-2.17,2.28-2.15,4.97,0.2,8.62c2.35,3.64-2.31,4.11,1.22,7.48c3.52,3.37,5.65,6.51,6.94,9.72
						c1.3,3.2,6.75,7.43,9.56,9.12c2.8,1.7-2.47,3.69-1.42,7.22c1.06,3.53,1.06,5.19-3.74,4.59c-4.81-0.61-27.11,1.47-30.55,5.07
						c-1.64,1.72-2.06,3.93,1.78,6.72c3.85,2.78,4.07,1.58,7.2,4.57c3.14,3,2.67,3.72,6.11,4.34c3.44,0.61,7.78,4.66,11.56,5.55
						c0,0-0.33,1.47-4.18-0.43c-3.86-1.9-6.24-2.48-7.45-1.22c-1.2,1.25,1.42,4.74,5.8,6.38c4.37,1.65,9.98,1.71,16.08-2.72
						c0,0-1.05,4.62,3.67,7.72c4.72,3.1,5.86,0.82,10.65,2.68c4.79,1.86,6.46-0.49,9.53-2.24c3.07-1.75,3.94-3.64,7.65-1.74
						c3.71,1.9,6.37,1.03,8.1-0.79c1.73-1.81,1.55-2.51,4.34-1.99c0.49,0.09,1.56-0.33,3.06-1.23c7.13-4.26,23.88-19.15,32.32-39.82
						c0,0,4.49-9.52,9.43-22.86c3.45-9.3,7.12-20.45,9.65-31.53c0.38-1.68,0.74-3.36,1.07-5.03c0.24-1.2,0.46-2.39,0.65-3.58
						c0.48-2.79,0.86-5.55,1.11-8.24c1.96-20.8,5.23-34.66,7.55-43.4c1.13-4.25,2.03-7.29,2.45-9.32
						C600.1,804.97,602.08,794.65,597.6,790.37z M522.78,820.93c9.26,8.84,25.18,74.97,25.18,74.97s-9.22-4.77-24.7-19.54
						c-15.49-14.78-15.35-37.68-13.9-47.54C510.81,818.96,518.12,816.49,522.78,820.93z M499.91,875.51
						c0.16-5.56,6.86-3.85,18.18,6.95c11.32,10.8,23.43,30.79,23.43,30.79s-21.86-10.65-28.33-16.83
						C506.72,890.25,499.75,881.08,499.91,875.51z M488.34,915.69c4.26-4.46,14.39,0.53,23.66,3.57c9.27,3.05,29.89,5.68,29.89,5.68
						c-6.09,3.73-34.04,9.37-45.76,6.14C484.41,927.85,484.08,920.15,488.34,915.69z M485.22,962.2c-8-2.58-11.48-5.27-8.64-8.24
						c2.84-2.98,18.79-4.68,28.37-6.91c9.51-2.22,41.67-10.32,42.17-10.44c-0.05,0.1-1.97,3.2-7.56,9.06
						C519.92,966.24,493.22,964.78,485.22,962.2z M564.85,905.11c-0.57,0.76-1.76,0.49-1.94-0.44c-1.59-8.03-7.21-30.42-9.19-41.29
						c-2.25-12.35,0.49-20.32,8.02-28.21c4.18-4.38,8.86-7.38,12.77-8.61c3.13-0.99,5.76-0.86,7.26,0.57
						c3.38,3.23,3.07,10.47,1.73,29.98c-0.07,1.45-0.19,2.88-0.36,4.29C580.74,882.17,569.08,899.43,564.85,905.11z"/>
				</g>
				<circle cx="666.97" cy="895.9" r="4.34"/>
				<circle cx="627.4" cy="995.08" r="1.34"/>
				<circle cx="446.8" cy="919.1" r="2.65"/>
				<circle cx="647.55" cy="803.14" r="4.66"/>
				<circle cx="625.41" cy="1052.58" r="2.06"/>
				<circle cx="475.6" cy="1030.36" r="3.87"/>
				<circle cx="533.77" cy="1055.65" r="1.35"/>
			</g>
		</g>
	</g>
	<path d="M713.16,1021.65c2.79-7.95,3.48-16.13,1.93-23.17c-1.68-7.64-5.79-13.05-11.57-15.25c-5.77-2.2-12.44-0.89-18.78,3.69
		c-5.85,4.22-10.78,10.78-13.99,18.58l-13.36-5.09l-23.91,62.71c-1.43,3.75-1.31,7.83,0.33,11.49c1.64,3.67,4.61,6.47,8.36,7.9
		l41.04,15.65c1.76,0.67,3.56,0.99,5.34,0.99c6.06,0,11.78-3.69,14.06-9.68l23.9-62.71L713.16,1021.65z M680.53,1007.33
		c2.6-6.81,6.37-12.68,10.62-16.53c4-3.63,7.89-4.99,10.94-3.82c3.05,1.16,5.05,4.76,5.62,10.14c0.61,5.71-0.49,12.6-3.08,19.41
		c-0.21,0.54-0.45,1.08-0.67,1.62l-24.01-9.15C680.14,1008.43,680.32,1007.87,680.53,1007.33z M707.21,1017.5
		c2.75-7.21,3.9-14.55,3.25-20.68c-0.22-2.04-0.63-3.88-1.22-5.49c4.54,6.77,5.29,18.02,1.34,29.34l-4.02-1.53
		C706.78,1018.58,707,1018.04,707.21,1017.5z M689.29,988.75c-4.57,4.14-8.6,10.39-11.34,17.6c-0.21,0.54-0.4,1.09-0.6,1.65
		l-4.02-1.53c2.99-7.22,7.52-13.3,12.87-17.22c2.55-1.86,5.13-3.13,7.66-3.78C692.35,986.27,690.82,987.36,689.29,988.75z
		 M722.96,1028.33l-22.92,60.13c-2.41,6.32-9.51,9.5-15.83,7.09l-41.04-15.65c-6.32-2.41-9.5-9.51-7.09-15.83l22.92-60.13
		L722.96,1028.33z"/>
</g>
</svg>
